<svg xmlns="http://www.w3.org/2000/svg" version="1.1" xmlns:xlink="http://www.w3.org/1999/xlink" xmlns:svgjs="http://svgjs.dev/svgjs" viewBox="0 0 800 800"><defs><filter id="bbburst-blur-1" x="-100%" y="-100%" width="400%" height="400%"><feGaussianBlur in="SourceGraphic" stdDeviation="1"></feGaussianBlur></filter><filter id="bbburst-blur-2" x="-100%" y="-100%" width="400%" height="400%"><feGaussianBlur in="SourceGraphic" stdDeviation="2"></feGaussianBlur></filter><filter id="bbburst-blur-3" x="-100%" y="-100%" width="400%" height="400%"><feGaussianBlur in="SourceGraphic" stdDeviation="4"></feGaussianBlur></filter><filter id="bbburst-blur-4" x="-100%" y="-100%" width="400%" height="400%"><feGaussianBlur in="SourceGraphic" stdDeviation="12"></feGaussianBlur></filter><symbol id="bbburst-shape-1" viewBox="0 0 194 167"><path d="m97 0 96.129 166.5H.871L97 0Z"></path></symbol><symbol id="bbburst-shape-5" viewBox="0 0 145 145"><circle cx="72.5" cy="72.5" r="72.5"></circle></symbol><symbol id="bbburst-shape-10" viewBox="0 0 145 145"><circle cx="72.5" cy="72.5" r="61.5" fill="none" stroke-width="22"></circle></symbol><symbol id="bbburst-shape-11" viewBox="0 0 194 167"><path d="M10.398 161 97 11l86.603 150H10.397Z" stroke-width="11"></path></symbol><symbol id="bbburst-shape-13" viewBox="0 0 159 159"><path stroke-width="22" d="M11 11h137v137H11z"></path></symbol></defs><use xlink:href="#bbburst-shape-1" width="13.4756890485591" opacity="0.8357018543220665" transform="matrix(0.9975797551787297,0.06953151844700264,-0.06953151844700264,0.9975797551787297,494.18885123463195,11.59835038272655)" fill="#ffa6d5"></use><use xlink:href="#bbburst-shape-13" width="25.058675769000953" opacity="0.5503784336497823" transform="matrix(0.7386194845124642,0.6741225831394033,-0.6741225831394033,0.7386194845124642,689.6484098272294,296.3095969351691)" fill="none" stroke="#2c2891" filter="url(#bbburst-blur-2)"></use><use xlink:href="#bbburst-shape-1" width="21.498723621094147" opacity="0.736655189128061" transform="matrix(0.9892928853969296,-0.14594377993945973,0.14594377993945973,0.9892928853969296,405.3324888366798,98.16667541737206)" fill="#2c2891" filter="url(#bbburst-blur-1)"></use><use xlink:href="#bbburst-shape-11" width="18.308198154892974" opacity="0.70836175818793" transform="matrix(0.8530603159953264,-0.5218123199714184,0.5218123199714184,0.8530603159953264,125.4850110368429,181.146334727179)" fill="none" stroke="#ffa6d5" filter="url(#bbburst-blur-1)"></use><use xlink:href="#bbburst-shape-13" width="40.32363446820883" opacity="0.03671348304605271" transform="matrix(1.6651863071225337,-0.5381956545454628,0.5381956545454628,1.6651863071225337,503.39157622265304,-507.867273460765)" fill="none" stroke="#2c2891" filter="url(#bbburst-blur-4)"></use><use xlink:href="#bbburst-shape-11" width="31.449438459397363" opacity="0.17402182215285633" transform="matrix(1.2499660153406478,-0.00921740166335597,0.00921740166335597,1.2499660153406478,464.7342304343672,-461.4511538804572)" fill="none" stroke="#ffa6d5" filter="url(#bbburst-blur-3)"></use><use xlink:href="#bbburst-shape-11" width="28.784642732091108" opacity="0.28308849618344956" transform="matrix(1.174870547714812,-0.42682454956609217,0.42682454956609217,1.174870547714812,-10.551800791313582,169.12077256201314)" fill="none" stroke="#00a19d" filter="url(#bbburst-blur-3)"></use><use xlink:href="#bbburst-shape-1" width="17.97482995335083" opacity="0.7178196528502443" transform="matrix(0.9992984608079551,0.03745111783180493,-0.03745111783180493,0.9992984608079551,518.8153456822783,-58.312925534150224)" fill="#2c2891" filter="url(#bbburst-blur-1)"></use><use xlink:href="#bbburst-shape-13" width="22.621560542919227" opacity="0.7396489073893091" transform="matrix(0.9684365477552889,0.24926021136919985,-0.24926021136919985,0.9684365477552889,401.50267287592425,87.99714711601843)" fill="none" stroke="#ffbd9b" filter="url(#bbburst-blur-1)"></use><use xlink:href="#bbburst-shape-11" width="24.414174781849113" opacity="0.4626761819793894" transform="matrix(0.7576225270204219,-0.6526929649928749,0.6526929649928749,0.7576225270204219,361.97993068911387,38.318366889465835)" fill="none" stroke="#ffbd9b" filter="url(#bbburst-blur-2)"></use><use xlink:href="#bbburst-shape-5" width="30.43172319775832" opacity="0.12193702486738689" transform="matrix(1.1368719909318974,-0.5196364847030508,0.5196364847030508,1.1368719909318974,-182.6593787908308,-215.11460704610744)" fill="#2c2891" filter="url(#bbburst-blur-3)"></use><use xlink:href="#bbburst-shape-5" width="28.566224022988063" opacity="0.5093053913071532" transform="matrix(0.9960571364443066,-0.08871404025501252,0.08871404025501252,0.9960571364443066,339.50544676052823,-217.70491663893117)" fill="#00a19d" filter="url(#bbburst-blur-2)"></use><use xlink:href="#bbburst-shape-5" width="15.214044752276425" opacity="0.9083011324221819" transform="matrix(0.9764123454653612,-0.21591417652120976,0.21591417652120976,0.9764123454653612,286.8501314661925,47.52034010404208)" fill="#ff5c58"></use><use xlink:href="#bbburst-shape-13" width="20.469268058307488" opacity="0.647140170572911" transform="matrix(0.7103162251418469,0.7038827035097802,-0.7038827035097802,0.7103162251418469,792.6194499902269,2.793035890911426)" fill="none" stroke="#2c2891" filter="url(#bbburst-blur-1)"></use><use xlink:href="#bbburst-shape-11" width="36.99930398653531" opacity="0.41572843451227903" transform="matrix(0.7408791050522396,-0.6716384084438534,0.6716384084438534,0.7408791050522396,-29.40112066528971,333.8977936328028)" fill="none" stroke="#00a19d" filter="url(#bbburst-blur-2)"></use><use xlink:href="#bbburst-shape-10" width="34.09549951644918" opacity="0.2728484742613638" transform="matrix(1.0524330813643104,-0.6744513394234035,0.6744513394234035,1.0524330813643104,259.40369054670657,-301.7521549826936)" fill="none" stroke="#2c2891" filter="url(#bbburst-blur-3)"></use><use xlink:href="#bbburst-shape-11" width="11.051265722083953" opacity="0.9672256558623279" transform="matrix(0.8549487229685985,-0.5187125225925847,0.5187125225925847,0.8549487229685985,195.57606334164947,73.24503039743172)" fill="none" stroke="#ffa6d5"></use><use xlink:href="#bbburst-shape-1" width="18.510827284091263" opacity="0.7160559219741278" transform="matrix(0.9990433257843948,0.04373137552896735,-0.04373137552896735,0.9990433257843948,336.550905658935,-105.76388091485006)" fill="#ffbd9b" filter="url(#bbburst-blur-1)"></use><use xlink:href="#bbburst-shape-1" width="38.838118990869226" opacity="0.3404711165795843" transform="matrix(0.7286415136830312,0.6848952799791375,-0.6848952799791375,0.7286415136830312,397.770011781791,234.69600277425468)" fill="#00a19d" filter="url(#bbburst-blur-2)"></use><use xlink:href="#bbburst-shape-1" width="30.849663204755455" opacity="0.4047595503123623" transform="matrix(0.9938166892389103,0.11103327514853881,-0.11103327514853881,0.9938166892389103,185.9940765304063,-111.70552502615323)" fill="#2c2891" filter="url(#bbburst-blur-2)"></use><use xlink:href="#bbburst-shape-11" width="19.23158437923354" opacity="0.8157480766193432" transform="matrix(0.9999968684175601,0.0025026296316015546,-0.0025026296316015546,0.9999968684175601,323.52930899316624,-47.916303548596886)" fill="none" stroke="#ffa6d5"></use><use xlink:href="#bbburst-shape-11" width="17.785242536588633" opacity="0.7802866482559636" transform="matrix(0.7347610636636284,0.6783260125661507,-0.6783260125661507,0.7347610636636284,737.6086247222584,32.83928734470953)" fill="none" stroke="#00a19d"></use><use xlink:href="#bbburst-shape-10" width="32.69370727430476" opacity="0.09755684950719823" transform="matrix(1.7310130722821597,0.2570870350450959,-0.2570870350450959,1.7310130722821597,157.32548187277226,-550.1680937029596)" fill="none" stroke="#ffa6d5" filter="url(#bbburst-blur-4)"></use><use xlink:href="#bbburst-shape-1" width="20.963568088849073" opacity="0.6497413177891396" transform="matrix(0.8665618873681262,0.4990696297722302,-0.4990696297722302,0.8665618873681262,717.7211003911068,141.25709403125035)" fill="#00a19d" filter="url(#bbburst-blur-1)"></use><use xlink:href="#bbburst-shape-1" width="14.472446385880257" opacity="0.8922591528733996" transform="matrix(0.8140729471623852,0.5807626336967181,-0.5807626336967181,0.8140729471623852,640.8999634383132,116.44890267930043)" fill="#00a19d"></use><use xlink:href="#bbburst-shape-5" width="30.93131703281545" opacity="0.640323143251085" transform="matrix(0.791016316581403,0.6117950530218348,-0.6117950530218348,0.791016316581403,470.690495866267,78.56184523845656)" fill="#ffa6d5" filter="url(#bbburst-blur-1)"></use><use xlink:href="#bbburst-shape-13" width="20.415607713633317" opacity="0.6601854589149034" transform="matrix(0.9956939950304995,0.09270096148478535,-0.09270096148478535,0.9956939950304995,576.387677921073,33.05379694578045)" fill="none" stroke="#2c2891" filter="url(#bbburst-blur-1)"></use><use xlink:href="#bbburst-shape-13" width="39.2804503400681" opacity="-0.08267342218270812" transform="matrix(1.4762013500191042,-0.9398561454827934,0.9398561454827934,1.4762013500191042,331.6073541972685,-524.3080072075079)" fill="none" stroke="#00a19d" filter="url(#bbburst-blur-4)"></use><use xlink:href="#bbburst-shape-1" width="32.630104752201326" opacity="0.18877324537568185" transform="matrix(1.2125793849301472,0.30356421930528343,-0.30356421930528343,1.2125793849301472,865.6050929219232,-117.94866076440138)" fill="#2c2891" filter="url(#bbburst-blur-3)"></use><use xlink:href="#bbburst-shape-10" width="28.290798924911464" opacity="0.5556215452706295" transform="matrix(0.8112107909700249,-0.5847538393322326,0.5847538393322326,0.8112107909700249,201.15071876145254,-110.6949916701524)" fill="none" stroke="#2c2891" filter="url(#bbburst-blur-1)"></use><use xlink:href="#bbburst-shape-10" width="38.406662125918864" opacity="0.3910196737949142" transform="matrix(0.9612770260013513,0.2755838879216222,-0.2755838879216222,0.9612770260013513,591.982722179854,265.2592549668658)" fill="none" stroke="#2c2891" filter="url(#bbburst-blur-2)"></use><use xlink:href="#bbburst-shape-13" width="25.94966133763912" opacity="0.6725525972130444" transform="matrix(0.7459717267116248,0.6659776144487718,-0.6659776144487718,0.7459717267116248,710.0367054207886,230.334497411121)" fill="none" stroke="#ffa6d5" filter="url(#bbburst-blur-1)"></use><use xlink:href="#bbburst-shape-10" width="31.77588047627747" opacity="0.07532010283931656" transform="matrix(1.7092445404660384,-0.375477164268403,0.375477164268403,1.7092445404660384,436.8078185911738,-634.4979586315761)" fill="none" stroke="#00a19d" filter="url(#bbburst-blur-4)"></use><use xlink:href="#bbburst-shape-5" width="37.29074238995156" opacity="0.24094784617173193" transform="matrix(1.235303810648733,-0.1911138283764918,0.1911138283764918,1.235303810648733,486.97363616298867,195.63785334375683)" fill="#ffbd9b" filter="url(#bbburst-blur-3)"></use><use xlink:href="#bbburst-shape-13" width="20.428212109800306" opacity="0.84886234810353" transform="matrix(0.7967802361585843,-0.6042691910622869,0.6042691910622869,0.7967802361585843,92.11203964820359,122.91083068953299)" fill="none" stroke="#ffa6d5"></use><use xlink:href="#bbburst-shape-11" width="12.911826079229384" opacity="0.858478058181571" transform="matrix(0.9963284390950199,0.0856133251922924,-0.0856133251922924,0.9963284390950199,465.97396268017155,-50.245947773916384)" fill="none" stroke="#ffbd9b"></use><use xlink:href="#bbburst-shape-13" width="36.884443385962435" opacity="0.18165577133495536" transform="matrix(0.9729218152772985,0.784807709797455,-0.784807709797455,0.9729218152772985,344.77639543112275,107.1165102721771)" fill="none" stroke="#ffa6d5" filter="url(#bbburst-blur-3)"></use><use xlink:href="#bbburst-shape-1" width="43.69825942333047" opacity="-0.0686859788538603" transform="matrix(1.7232158217541809,-0.30500365843062177,0.30500365843062177,1.7232158217541809,579.2431841433197,58.70003796952335)" fill="#00a19d" filter="url(#bbburst-blur-4)"></use><use xlink:href="#bbburst-shape-1" width="35.79646059098306" opacity="0.07650250695344152" transform="matrix(1.3341990586023544,-1.132436696696372,1.132436696696372,1.3341990586023544,-433.48814413931757,99.90352405949955)" fill="#ffbd9b" filter="url(#bbburst-blur-4)"></use><use xlink:href="#bbburst-shape-11" width="17.2943419218984" opacity="0.7337969356322982" transform="matrix(0.9992524054621631,-0.03866044720487237,0.03866044720487237,0.9992524054621631,432.6306399119636,-105.08855335443195)" fill="none" stroke="#ffa6d5" filter="url(#bbburst-blur-1)"></use><use xlink:href="#bbburst-shape-11" width="21.75617472839646" opacity="0.5922285742643524" transform="matrix(0.9074752317676259,0.4201055864045295,-0.4201055864045295,0.9074752317676259,454.5144178331967,-119.14905220941188)" fill="none" stroke="#ffbd9b" filter="url(#bbburst-blur-1)"></use><use xlink:href="#bbburst-shape-13" width="31.094966983013926" opacity="0.15628310918506605" transform="matrix(1.2056847659226895,-0.32988520006503685,0.32988520006503685,1.2056847659226895,126.03022104012283,-436.2490586287992)" fill="none" stroke="#2c2891" filter="url(#bbburst-blur-3)"></use><use xlink:href="#bbburst-shape-5" width="31.398148996438618" opacity="0.3616423707292785" transform="matrix(0.9963804490877325,0.08500588612401153,-0.08500588612401153,0.9963804490877325,343.5628358382296,-277.2388299314383)" fill="#ffbd9b" filter="url(#bbburst-blur-2)"></use><use xlink:href="#bbburst-shape-13" width="17.272201617814442" opacity="0.8032697692767121" transform="matrix(0.9434806026143089,0.3314277485222692,-0.3314277485222692,0.9434806026143089,484.60607924105716,-59.323555044378566)" fill="none" stroke="#2c2891"></use><use xlink:href="#bbburst-shape-10" width="14.34046933630204" opacity="0.9079206075082409" transform="matrix(0.9997954271705216,-0.02022631476355076,0.02022631476355076,0.9997954271705216,424.60169127148373,11.54145393832772)" fill="none" stroke="#2c2891"></use><use xlink:href="#bbburst-shape-13" width="29.3944775975409" opacity="0.41286280623038263" transform="matrix(0.9522672216668657,0.3052656851643637,-0.3052656851643637,0.9522672216668657,433.54260783120907,268.07737570739505)" fill="none" stroke="#ff5c58" filter="url(#bbburst-blur-2)"></use><use xlink:href="#bbburst-shape-11" width="32.61296264544947" opacity="0.3234754292655606" transform="matrix(0.9156046203761169,0.8509807160834532,-0.8509807160834532,0.9156046203761169,999.0146974883246,153.83135763245224)" fill="none" stroke="#2c2891" filter="url(#bbburst-blur-3)"></use><use xlink:href="#bbburst-shape-11" width="29.85394432483562" opacity="0.5769666496677975" transform="matrix(0.9071945004797674,-0.4207114668026835,0.4207114668026835,0.9071945004797674,171.79965745402635,227.72381300332523)" fill="none" stroke="#ffa6d5" filter="url(#bbburst-blur-1)"></use><use xlink:href="#bbburst-shape-13" width="16.743654518905814" opacity="0.7280484634451269" transform="matrix(0.9433105236799236,-0.33191151820132475,0.33191151820132475,0.9433105236799236,144.0494864423915,-15.59361988080991)" fill="none" stroke="#ffa6d5" filter="url(#bbburst-blur-1)"></use><use xlink:href="#bbburst-shape-13" width="36.34994584299212" opacity="0.18999960540088467" transform="matrix(0.9432413016861114,0.8202413344824132,-0.8202413344824132,0.9432413016861114,965.0301226997883,-253.55715765209146)" fill="none" stroke="#ffa6d5" filter="url(#bbburst-blur-3)"></use><use xlink:href="#bbburst-shape-5" width="14.868600809530623" opacity="0.81822861329817" transform="matrix(0.9290615391077474,0.3699252039950017,-0.3699252039950017,0.9290615391077474,512.2695544847909,102.1869749259397)" fill="#2c2891"></use><use xlink:href="#bbburst-shape-13" width="12.789744223046478" opacity="0.9589933713172343" transform="matrix(0.9696713680833751,0.24441243405218901,-0.24441243405218901,0.9696713680833751,473.31775813805166,7.814446992903811)" fill="none" stroke="#00a19d"></use><use xlink:href="#bbburst-shape-11" width="27.435035063390316" opacity="0.703483676380328" transform="matrix(0.8202238081391942,0.5720427471453845,-0.5720427471453845,0.8202238081391942,612.835938441602,197.11465883207762)" fill="none" stroke="#00a19d" filter="url(#bbburst-blur-1)"></use><use xlink:href="#bbburst-shape-1" width="36.73305755597186" opacity="0.04524379964483416" transform="matrix(1.2994803688072265,-1.1721138046643058,1.1721138046643058,1.2994803688072265,-336.7900685935815,-451.7419289075185)" fill="#ff5c58" filter="url(#bbburst-blur-4)"></use><use xlink:href="#bbburst-shape-11" width="39.09126802335057" opacity="0.30688895398373384" transform="matrix(1.1767256202670626,-0.421683310799819,0.421683310799819,1.1767256202670626,-33.69181239974117,-260.04693034788124)" fill="none" stroke="#ffa6d5" filter="url(#bbburst-blur-3)"></use><use xlink:href="#bbburst-shape-11" width="14.406753533032475" opacity="0.9409147434247309" transform="matrix(0.8510014719614195,0.5251633029063411,-0.5251633029063411,0.8510014719614195,621.1743249152661,35.33343905644068)" fill="none" stroke="#ffa6d5"></use><use xlink:href="#bbburst-shape-10" width="16.240088235522297" opacity="0.7449709506821081" transform="matrix(0.9239826055172642,-0.3824344972691765,0.3824344972691765,0.9239826055172642,129.43356175459854,65.92818557345805)" fill="none" stroke="#ff5c58" filter="url(#bbburst-blur-1)"></use><use xlink:href="#bbburst-shape-1" width="42.778536941432094" opacity="0.1966182970002226" transform="matrix(1.2271748835130911,0.2377852082755176,-0.2377852082755176,1.2271748835130911,545.7718522670651,257.3557720426563)" fill="#ffa6d5" filter="url(#bbburst-blur-3)"></use><use xlink:href="#bbburst-shape-11" width="14.693269563077816" opacity="0.8446428433824921" transform="matrix(0.9517420348389473,0.30689916767664915,-0.30689916767664915,0.9517420348389473,580.9472877096914,-8.561659636790807)" fill="none" stroke="#ffbd9b"></use><use xlink:href="#bbburst-shape-1" width="23.604132870458468" opacity="0.44211125159034037" transform="matrix(0.7397640177900934,0.6728664042609487,-0.6728664042609487,0.7397640177900934,762.6530350700408,-133.10457866078977)" fill="#ffa6d5" filter="url(#bbburst-blur-2)"></use><use xlink:href="#bbburst-shape-11" width="36.590544787374895" opacity="0.24409727849207297" transform="matrix(1.0328473225919346,0.704078410558563,-0.704078410558563,1.0328473225919346,476.553388525552,-310.96966033932455)" fill="none" stroke="#2c2891" filter="url(#bbburst-blur-3)"></use><use xlink:href="#bbburst-shape-10" width="19.17012691463925" opacity="0.6714831301049554" transform="matrix(0.9511150857853526,-0.3088366778598704,0.3088366778598704,0.9511150857853526,238.80352794176972,-122.53629351047329)" fill="none" stroke="#2c2891" filter="url(#bbburst-blur-1)"></use><use xlink:href="#bbburst-shape-11" width="13.132478327328293" opacity="0.8976605758647015" transform="matrix(0.9764266705785564,0.21584938494903202,-0.21584938494903202,0.9764266705785564,458.51843207932023,-32.907452311649934)" fill="none" stroke="#00a19d"></use><use xlink:href="#bbburst-shape-13" width="19.41690419952981" opacity="0.7529280749628907" transform="matrix(0.730156821281631,0.6832796033366607,-0.6832796033366607,0.730156821281631,777.0563171434262,92.49870747004854)" fill="none" stroke="#ffa6d5" filter="url(#bbburst-blur-1)"></use><use xlink:href="#bbburst-shape-11" width="25.1013141961367" opacity="0.5410984755051556" transform="matrix(0.9935643225077977,-0.11326931199411826,0.11326931199411826,0.9935643225077977,548.6546603356636,-0.22308256021415218)" fill="none" stroke="#ff5c58" filter="url(#bbburst-blur-2)"></use><use xlink:href="#bbburst-shape-5" width="38.61780827747559" opacity="0.14088575578439744" transform="matrix(1.1311126819722208,-0.5320564826046287,0.5320564826046287,1.1311126819722208,521.1434879982355,-193.37447991472123)" fill="#2c2891" filter="url(#bbburst-blur-3)"></use><use xlink:href="#bbburst-shape-13" width="33.017874422332326" opacity="0.4606046244263168" transform="matrix(0.7679979832358687,-0.640452260317378,0.640452260317378,0.7679979832358687,-109.8819975727728,74.64917418214253)" fill="none" stroke="#00a19d" filter="url(#bbburst-blur-2)"></use><use xlink:href="#bbburst-shape-10" width="15.785767942329802" opacity="0.8006192232384042" transform="matrix(0.877738416192827,0.4791401389356851,-0.4791401389356851,0.877738416192827,604.562072171698,132.62446381136277)" fill="none" stroke="#ff5c58"></use><use xlink:href="#bbburst-shape-10" width="34.72266279459246" opacity="0.24633865522566045" transform="matrix(1.176827973562903,0.42139758024914103,-0.42139758024914103,1.176827973562903,219.17338291466424,-160.5708397740189)" fill="none" stroke="#00a19d" filter="url(#bbburst-blur-3)"></use><use xlink:href="#bbburst-shape-1" width="13.700405474862919" opacity="0.8890198383679736" transform="matrix(0.9732692978320708,-0.22966687592569307,0.22966687592569307,0.9732692978320708,252.05504108442807,5.05421742046417)" fill="#00a19d"></use><use xlink:href="#bbburst-shape-11" width="30.458071601892513" opacity="0.507985882013376" transform="matrix(0.9941129031052491,0.10834913880439281,-0.10834913880439281,0.9941129031052491,213.95326515976853,55.99918225792578)" fill="none" stroke="#ffa6d5" filter="url(#bbburst-blur-2)"></use><use xlink:href="#bbburst-shape-11" width="17.044175800209015" opacity="0.8376954301065263" transform="matrix(0.9996917565904976,0.024827239174046056,-0.024827239174046056,0.9996917565904976,452.85611203585165,51.542077447356235)" fill="none" stroke="#ffa6d5"></use><use xlink:href="#bbburst-shape-13" width="34.44199534264475" opacity="0.4230405813080702" transform="matrix(0.7155274657959831,-0.6985846016708199,0.6985846016708199,0.7155274657959831,-36.09517354750989,-89.99267365339321)" fill="none" stroke="#ffbd9b" filter="url(#bbburst-blur-2)"></use><use xlink:href="#bbburst-shape-13" width="34.28534106760816" opacity="0.5063437779530717" transform="matrix(0.9154919400282583,0.40233631173844586,-0.40233631173844586,0.9154919400282583,373.9746849588478,-114.57368182111765)" fill="none" stroke="#ffa6d5" filter="url(#bbburst-blur-2)"></use><use xlink:href="#bbburst-shape-10" width="31.334882929764756" opacity="0.07406852418141696" transform="matrix(1.6044293595849057,0.6987892601507046,-0.6987892601507046,1.6044293595849057,861.1493793996575,109.02432544155988)" fill="none" stroke="#2c2891" filter="url(#bbburst-blur-4)"></use><use xlink:href="#bbburst-shape-5" width="31.523582682201145" opacity="0.1883334394501558" transform="matrix(1.2402213379093912,0.15604817523521225,-0.15604817523521225,1.2402213379093912,77.62148521415165,-98.08960350998836)" fill="#00a19d" filter="url(#bbburst-blur-3)"></use><use xlink:href="#bbburst-shape-10" width="28.846998251719135" opacity="0.08039640280730942" transform="matrix(1.3662440569811862,1.0935616931676004,-1.0935616931676004,1.3662440569811862,1177.091566871522,42.91087656179002)" fill="none" stroke="#ffbd9b" filter="url(#bbburst-blur-4)"></use><use xlink:href="#bbburst-shape-13" width="19.692269050610413" opacity="0.763520605704413" transform="matrix(0.9335314067678148,-0.3584956242105402,0.3584956242105402,0.9335314067678148,344.1250738044322,74.50770001240647)" fill="none" stroke="#ff5c58" filter="url(#bbburst-blur-1)"></use><use xlink:href="#bbburst-shape-11" width="28.823059273122226" opacity="0.34848543952021716" transform="matrix(0.8790846688485153,0.47666565325760174,-0.47666565325760174,0.8790846688485153,286.95090549437856,74.99815492997169)" fill="none" stroke="#00a19d" filter="url(#bbburst-blur-2)"></use><use xlink:href="#bbburst-shape-13" width="35.689986798747604" opacity="-0.09154627933310189" transform="matrix(1.371892620762993,-1.0864670437229318,1.0864670437229318,1.371892620762993,-411.6588057963072,-471.3533018859903)" fill="none" stroke="#00a19d" filter="url(#bbburst-blur-4)"></use><use xlink:href="#bbburst-shape-11" width="36.05711903440541" opacity="0.38266457395068354" transform="matrix(0.9923850476651908,-0.12317433649326916,0.12317433649326916,0.9923850476651908,525.9491269376686,204.45454191776787)" fill="none" stroke="#ffa6d5" filter="url(#bbburst-blur-2)"></use><use xlink:href="#bbburst-shape-1" width="30.575175201489863" opacity="0.5093088145521149" transform="matrix(0.9475500513436245,0.3196074157442138,-0.3196074157442138,0.9475500513436245,694.4821821330902,142.41149404434282)" fill="#2c2891" filter="url(#bbburst-blur-2)"></use><use xlink:href="#bbburst-shape-13" width="22.189971538314193" opacity="0.6749247945990215" transform="matrix(0.8041473187176406,-0.5944300545894609,0.5944300545894609,0.8041473187176406,180.8155900787764,-58.73760372913898)" fill="none" stroke="#2c2891" filter="url(#bbburst-blur-1)"></use><use xlink:href="#bbburst-shape-13" width="38.908025245968105" opacity="0.20999367209713782" transform="matrix(0.994067277703048,-0.7578457939449497,0.7578457939449497,0.994067277703048,59.08407133852563,-337.9081123854799)" fill="none" stroke="#ffa6d5" filter="url(#bbburst-blur-3)"></use><use xlink:href="#bbburst-shape-13" width="44.6272125217354" opacity="0.3791762968648843" transform="matrix(0.9771179787130568,-0.21269803872088283,0.21269803872088283,0.9771179787130568,299.50277925404276,293.1965594987115)" fill="none" stroke="#00a19d" filter="url(#bbburst-blur-2)"></use><use xlink:href="#bbburst-shape-1" width="31.957218773765486" opacity="0.3678807074487933" transform="matrix(0.8274684933607346,-0.5615121481279955,0.5615121481279955,0.8274684933607346,198.14937850535077,-204.1535935081854)" fill="#2c2891" filter="url(#bbburst-blur-2)"></use><use xlink:href="#bbburst-shape-1" width="29.413066685808232" opacity="0.1965405045342623" transform="matrix(0.9907919264692404,0.7621229286954772,-0.7621229286954772,0.9907919264692404,645.7206017891498,351.3168597358049)" fill="#ffa6d5" filter="url(#bbburst-blur-3)"></use><use xlink:href="#bbburst-shape-10" width="32.90658661900268" opacity="0.5487893766013299" transform="matrix(0.9522257373444908,-0.3053950640379456,0.3053950640379456,0.9522257373444908,373.1763725550677,194.15156567971178)" fill="none" stroke="#00a19d" filter="url(#bbburst-blur-2)"></use><use xlink:href="#bbburst-shape-11" width="23.26491292388127" opacity="0.6573879047074698" transform="matrix(0.7545689264541537,0.6562207976206073,-0.6562207976206073,0.7545689264541537,530.7134602479665,-2.3871850946315476)" fill="none" stroke="#ffbd9b" filter="url(#bbburst-blur-1)"></use><use xlink:href="#bbburst-shape-13" width="31.3093191398123" opacity="0.40262411782298646" transform="matrix(0.7859550642914368,-0.6182836217421932,0.6182836217421932,0.7859550642914368,318.8571212311205,-105.72692778866639)" fill="none" stroke="#ffbd9b" filter="url(#bbburst-blur-2)"></use><use xlink:href="#bbburst-shape-11" width="25.991959331598423" opacity="0.6349177461005906" transform="matrix(0.9043651822351421,0.4267594371080718,-0.4267594371080718,0.9043651822351421,717.9879322734532,-9.342126900417611)" fill="none" stroke="#00a19d" filter="url(#bbburst-blur-1)"></use><use xlink:href="#bbburst-shape-10" width="18.271872453062315" opacity="0.7804781731665262" transform="matrix(0.9927151616037779,-0.12048488669532413,0.12048488669532413,0.9927151616037779,342.4540956176603,-94.76973876762736)" fill="none" stroke="#ff5c58"></use><use xlink:href="#bbburst-shape-11" width="43.79419987532667" opacity="0.21054385939463538" transform="matrix(0.9538862177606384,-0.8078372878038644,0.8078372878038644,0.9538862177606384,-80.66633843128267,363.7109086924438)" fill="none" stroke="#ffbd9b" filter="url(#bbburst-blur-3)"></use><use xlink:href="#bbburst-shape-13" width="32.25386237002912" opacity="0.5046635272170383" transform="matrix(0.7743442744153061,0.6327645254596951,-0.6327645254596951,0.7743442744153061,853.8732712745809,144.920882391181)" fill="none" stroke="#00a19d" filter="url(#bbburst-blur-2)"></use><use xlink:href="#bbburst-shape-1" width="23.389888130957978" opacity="0.6342012293105396" transform="matrix(0.7353195734771362,0.6777205359596259,-0.6777205359596259,0.7353195734771362,517.0705361134627,175.14206124449004)" fill="#ffa6d5" filter="url(#bbburst-blur-1)"></use><use xlink:href="#bbburst-shape-11" width="45.91239378917152" opacity="-0.09140426693175696" transform="matrix(1.4066390766400072,1.041089097085042,-1.041089097085042,1.4066390766400072,437.3134531992545,159.73094419383187)" fill="none" stroke="#ffbd9b" filter="url(#bbburst-blur-4)"></use><use xlink:href="#bbburst-shape-13" width="40.713564788080454" opacity="0.06876966862387168" transform="matrix(1.5173480112232152,0.8718686901345599,-0.8718686901345599,1.5173480112232152,492.94659491939865,128.89445684348163)" fill="none" stroke="#00a19d" filter="url(#bbburst-blur-4)"></use><use xlink:href="#bbburst-shape-10" width="31.64069956617429" opacity="0.1692455970082355" transform="matrix(1.2431803085765905,-0.13039447981955982,0.13039447981955982,1.2431803085765905,606.9379801155299,153.88305517066556)" fill="none" stroke="#2c2891" filter="url(#bbburst-blur-3)"></use><use xlink:href="#bbburst-shape-1" width="32.35058987513334" opacity="0.3224081977659815" transform="matrix(1.1643876127410249,0.45464435253861546,-0.45464435253861546,1.1643876127410249,821.2598288462912,-235.1658066647915)" fill="#ffa6d5" filter="url(#bbburst-blur-3)"></use><use xlink:href="#bbburst-shape-13" width="35.349425139714356" opacity="0.11153283668963132" transform="matrix(1.1475201661287502,0.49567879551968513,-0.49567879551968513,1.1475201661287502,284.4805410176666,203.70975904015222)" fill="none" stroke="#ffa6d5" filter="url(#bbburst-blur-3)"></use><use xlink:href="#bbburst-shape-10" width="28.938451062014135" opacity="0.5367513712505031" transform="matrix(0.9778314588603038,0.20939350052742806,-0.20939350052742806,0.9778314588603038,401.8224388040038,-191.29517464470254)" fill="none" stroke="#00a19d" filter="url(#bbburst-blur-2)"></use><use xlink:href="#bbburst-shape-1" width="17.16063922805565" opacity="0.7992854098492314" transform="matrix(0.7503144196770709,-0.6610811384577995,0.6610811384577995,0.7503144196770709,38.91588249050113,101.46076699067038)" fill="#2c2891"></use><use xlink:href="#bbburst-shape-10" width="28.303058450152086" opacity="0.590473651031242" transform="matrix(0.9241093188683295,-0.3821282072560361,0.3821282072560361,0.9241093188683295,124.30016406693755,183.79093354424356)" fill="none" stroke="#00a19d" filter="url(#bbburst-blur-1)"></use><use xlink:href="#bbburst-shape-10" width="34.83355521190037" opacity="0.3669347996787583" transform="matrix(0.9970825039645012,0.07633138468467976,-0.07633138468467976,0.9970825039645012,697.1881946861046,21.927225190400804)" fill="none" stroke="#2c2891" filter="url(#bbburst-blur-2)"></use><use xlink:href="#bbburst-shape-1" width="25.69747056262028" opacity="0.5853008154011244" transform="matrix(0.8480397495139195,-0.5299326214193355,0.5299326214193355,0.8480397495139195,0.9950114362530087,6.01710380546001)" fill="#ff5c58" filter="url(#bbburst-blur-1)"></use><use xlink:href="#bbburst-shape-1" width="36.26302898559871" opacity="0.1853316847101234" transform="matrix(1.1172601718960404,0.5605619575879458,-0.5605619575879458,1.1172601718960404,960.5012744256055,28.195032197130274)" fill="#00a19d" filter="url(#bbburst-blur-3)"></use><use xlink:href="#bbburst-shape-13" width="10.830848863962478" opacity="0.8578842495755746" transform="matrix(0.9867147146103501,0.16246252482161946,-0.16246252482161946,0.9867147146103501,469.49398539146796,-58.75428513525293)" fill="none" stroke="#ffbd9b"></use><use xlink:href="#bbburst-shape-13" width="22.706759083863908" opacity="0.5776032745521877" transform="matrix(0.9917623136278857,0.12809181577081072,-0.12809181577081072,0.9917623136278857,545.839886934166,-156.02897265070226)" fill="none" stroke="#ffa6d5" filter="url(#bbburst-blur-1)"></use><use xlink:href="#bbburst-shape-13" width="32.597704269839056" opacity="0.49222721864909" transform="matrix(0.7244497183312603,0.6893276475013588,-0.6893276475013588,0.7244497183312603,482.0415487230224,237.2969342221612)" fill="none" stroke="#ff5c58" filter="url(#bbburst-blur-2)"></use><use xlink:href="#bbburst-shape-5" width="26.63829309113043" opacity="0.30452726040108524" transform="matrix(1.2331053415153241,0.20481996173804828,-0.20481996173804828,1.2331053415153241,768.1614211248066,-175.62064948568087)" fill="#2c2891" filter="url(#bbburst-blur-3)"></use><use xlink:href="#bbburst-shape-10" width="35.02288403745584" opacity="0.5242798544627902" transform="matrix(0.890204166895179,-0.45556178641591566,0.45556178641591566,0.890204166895179,381.8428516634923,-64.51420510290598)" fill="none" stroke="#ffa6d5" filter="url(#bbburst-blur-2)"></use></svg>